<svg width="218" height="92" viewBox="0 0 218 92" fill="none" xmlns="http://www.w3.org/2000/svg">
<rect x="175" y="48.5" width="43" height="43" fill="#767E86"/>
<rect width="43" height="43" fill="#172432"/>
<rect x="14" y="14.5" width="186" height="61" rx="12" fill="#FF7757"/>
<path d="M39.31 51.5C39.13 51.5 38.986 51.458 38.878 51.374C38.782 51.29 38.704 51.176 38.644 51.032L34.63 39.458C34.606 39.386 34.594 39.32 34.594 39.26C34.594 39.164 34.63 39.08 34.702 39.008C34.774 38.936 34.858 38.9 34.954 38.9H35.89C36.034 38.9 36.142 38.942 36.214 39.026C36.298 39.098 36.346 39.164 36.358 39.224L39.886 49.43L43.414 39.224C43.438 39.164 43.486 39.098 43.558 39.026C43.63 38.942 43.738 38.9 43.882 38.9H44.818C44.914 38.9 44.998 38.936 45.07 39.008C45.154 39.08 45.196 39.164 45.196 39.26C45.196 39.32 45.184 39.386 45.16 39.458L41.128 51.032C41.08 51.176 41.002 51.29 40.894 51.374C40.798 51.458 40.66 51.5 40.48 51.5H39.31ZM47.2948 51.5C47.1748 51.5 47.0728 51.464 46.9888 51.392C46.9168 51.308 46.8808 51.206 46.8808 51.086V42.554C46.8808 42.434 46.9168 42.338 46.9888 42.266C47.0728 42.182 47.1748 42.14 47.2948 42.14H48.1588C48.2788 42.14 48.3748 42.182 48.4468 42.266C48.5188 42.338 48.5548 42.434 48.5548 42.554V51.086C48.5548 51.206 48.5188 51.308 48.4468 51.392C48.3748 51.464 48.2788 51.5 48.1588 51.5H47.2948ZM47.1508 40.394C47.0308 40.394 46.9288 40.358 46.8448 40.286C46.7728 40.202 46.7368 40.1 46.7368 39.98V39.008C46.7368 38.888 46.7728 38.792 46.8448 38.72C46.9288 38.636 47.0308 38.594 47.1508 38.594H48.2848C48.4048 38.594 48.5008 38.636 48.5728 38.72C48.6568 38.792 48.6988 38.888 48.6988 39.008V39.98C48.6988 40.1 48.6568 40.202 48.5728 40.286C48.5008 40.358 48.4048 40.394 48.2848 40.394H47.1508ZM55.0014 51.68C53.7654 51.68 52.7814 51.302 52.0494 50.546C51.3174 49.778 50.9154 48.734 50.8434 47.414C50.8314 47.258 50.8254 47.06 50.8254 46.82C50.8254 46.568 50.8314 46.364 50.8434 46.208C50.8914 45.356 51.0894 44.612 51.4374 43.976C51.7854 43.328 52.2594 42.83 52.8594 42.482C53.4714 42.134 54.1854 41.96 55.0014 41.96C55.9134 41.96 56.6754 42.152 57.2874 42.536C57.9114 42.92 58.3854 43.466 58.7094 44.174C59.0334 44.882 59.1954 45.71 59.1954 46.658V46.964C59.1954 47.096 59.1534 47.198 59.0694 47.27C58.9974 47.342 58.9014 47.378 58.7814 47.378H52.5534C52.5534 47.39 52.5534 47.414 52.5534 47.45C52.5534 47.486 52.5534 47.516 52.5534 47.54C52.5774 48.032 52.6854 48.494 52.8774 48.926C53.0694 49.346 53.3454 49.688 53.7054 49.952C54.0654 50.216 54.4974 50.348 55.0014 50.348C55.4334 50.348 55.7934 50.282 56.0814 50.15C56.3694 50.018 56.6034 49.874 56.7834 49.718C56.9634 49.55 57.0834 49.424 57.1434 49.34C57.2514 49.184 57.3354 49.094 57.3954 49.07C57.4554 49.034 57.5514 49.016 57.6834 49.016H58.5474C58.6674 49.016 58.7634 49.052 58.8354 49.124C58.9194 49.184 58.9554 49.274 58.9434 49.394C58.9314 49.574 58.8354 49.796 58.6554 50.06C58.4754 50.312 58.2174 50.564 57.8814 50.816C57.5454 51.068 57.1374 51.278 56.6574 51.446C56.1774 51.602 55.6254 51.68 55.0014 51.68ZM52.5534 46.136H57.4854V46.082C57.4854 45.542 57.3834 45.062 57.1794 44.642C56.9874 44.222 56.7054 43.892 56.3334 43.652C55.9614 43.4 55.5174 43.274 55.0014 43.274C54.4854 43.274 54.0414 43.4 53.6694 43.652C53.3094 43.892 53.0334 44.222 52.8414 44.642C52.6494 45.062 52.5534 45.542 52.5534 46.082V46.136ZM63.5855 51.5C63.4295 51.5 63.3095 51.464 63.2255 51.392C63.1415 51.308 63.0695 51.194 63.0095 51.05L60.4535 42.698C60.4295 42.638 60.4175 42.578 60.4175 42.518C60.4175 42.41 60.4535 42.32 60.5255 42.248C60.6095 42.176 60.6995 42.14 60.7955 42.14H61.5875C61.7195 42.14 61.8215 42.176 61.8935 42.248C61.9655 42.32 62.0135 42.386 62.0375 42.446L64.0355 49.232L66.1775 42.518C66.2015 42.434 66.2495 42.35 66.3215 42.266C66.4055 42.182 66.5255 42.14 66.6815 42.14H67.2935C67.4495 42.14 67.5695 42.182 67.6535 42.266C67.7375 42.35 67.7855 42.434 67.7975 42.518L69.9395 49.232L71.9375 42.446C71.9495 42.386 71.9915 42.32 72.0635 42.248C72.1355 42.176 72.2375 42.14 72.3695 42.14H73.1615C73.2695 42.14 73.3595 42.176 73.4315 42.248C73.5035 42.32 73.5395 42.41 73.5395 42.518C73.5395 42.578 73.5275 42.638 73.5035 42.698L70.9475 51.05C70.9115 51.194 70.8455 51.308 70.7495 51.392C70.6655 51.464 70.5395 51.5 70.3715 51.5H69.6695C69.5135 51.5 69.3815 51.464 69.2735 51.392C69.1775 51.308 69.1115 51.194 69.0755 51.05L66.9875 44.606L64.8995 51.05C64.8515 51.194 64.7795 51.308 64.6835 51.392C64.5875 51.464 64.4555 51.5 64.2875 51.5H63.5855ZM82.1334 51.68C81.5334 51.68 80.9874 51.56 80.4954 51.32C80.0034 51.08 79.6074 50.756 79.3074 50.348C79.0074 49.94 78.8574 49.478 78.8574 48.962C78.8574 48.134 79.1934 47.474 79.8654 46.982C80.5374 46.49 81.4134 46.166 82.4934 46.01L85.1754 45.632V45.11C85.1754 44.534 85.0074 44.084 84.6714 43.76C84.3474 43.436 83.8134 43.274 83.0694 43.274C82.5294 43.274 82.0914 43.382 81.7554 43.598C81.4314 43.814 81.2034 44.09 81.0714 44.426C80.9994 44.606 80.8734 44.696 80.6934 44.696H79.8834C79.7514 44.696 79.6494 44.66 79.5774 44.588C79.5174 44.504 79.4874 44.408 79.4874 44.3C79.4874 44.12 79.5534 43.898 79.6854 43.634C79.8294 43.37 80.0454 43.112 80.3334 42.86C80.6214 42.608 80.9874 42.398 81.4314 42.23C81.8874 42.05 82.4394 41.96 83.0874 41.96C83.8074 41.96 84.4134 42.056 84.9054 42.248C85.3974 42.428 85.7814 42.674 86.0574 42.986C86.3454 43.298 86.5494 43.652 86.6694 44.048C86.8014 44.444 86.8674 44.846 86.8674 45.254V51.086C86.8674 51.206 86.8254 51.308 86.7414 51.392C86.6694 51.464 86.5734 51.5 86.4534 51.5H85.6254C85.4934 51.5 85.3914 51.464 85.3194 51.392C85.2474 51.308 85.2114 51.206 85.2114 51.086V50.312C85.0554 50.528 84.8454 50.744 84.5814 50.96C84.3174 51.164 83.9874 51.338 83.5914 51.482C83.1954 51.614 82.7094 51.68 82.1334 51.68ZM82.5114 50.33C83.0034 50.33 83.4534 50.228 83.8614 50.024C84.2694 49.808 84.5874 49.478 84.8154 49.034C85.0554 48.59 85.1754 48.032 85.1754 47.36V46.856L83.0874 47.162C82.2354 47.282 81.5934 47.486 81.1614 47.774C80.7294 48.05 80.5134 48.404 80.5134 48.836C80.5134 49.172 80.6094 49.454 80.8014 49.682C81.0054 49.898 81.2574 50.06 81.5574 50.168C81.8694 50.276 82.1874 50.33 82.5114 50.33ZM89.887 51.5C89.767 51.5 89.665 51.464 89.581 51.392C89.509 51.308 89.473 51.206 89.473 51.086V39.134C89.473 39.014 89.509 38.918 89.581 38.846C89.665 38.762 89.767 38.72 89.887 38.72H90.733C90.865 38.72 90.967 38.762 91.039 38.846C91.111 38.918 91.147 39.014 91.147 39.134V51.086C91.147 51.206 91.111 51.308 91.039 51.392C90.967 51.464 90.865 51.5 90.733 51.5H89.887ZM94.264 51.5C94.144 51.5 94.042 51.464 93.958 51.392C93.886 51.308 93.85 51.206 93.85 51.086V39.134C93.85 39.014 93.886 38.918 93.958 38.846C94.042 38.762 94.144 38.72 94.264 38.72H95.11C95.242 38.72 95.344 38.762 95.416 38.846C95.488 38.918 95.524 39.014 95.524 39.134V51.086C95.524 51.206 95.488 51.308 95.416 51.392C95.344 51.464 95.242 51.5 95.11 51.5H94.264ZM105.888 51.5C105.216 51.5 104.67 51.374 104.25 51.122C103.83 50.858 103.524 50.492 103.332 50.024C103.14 49.544 103.044 48.98 103.044 48.332V43.58H101.64C101.52 43.58 101.418 43.544 101.334 43.472C101.262 43.388 101.226 43.286 101.226 43.166V42.554C101.226 42.434 101.262 42.338 101.334 42.266C101.418 42.182 101.52 42.14 101.64 42.14H103.044V39.134C103.044 39.014 103.08 38.918 103.152 38.846C103.236 38.762 103.338 38.72 103.458 38.72H104.304C104.424 38.72 104.52 38.762 104.592 38.846C104.676 38.918 104.718 39.014 104.718 39.134V42.14H106.95C107.07 42.14 107.166 42.182 107.238 42.266C107.322 42.338 107.364 42.434 107.364 42.554V43.166C107.364 43.286 107.322 43.388 107.238 43.472C107.166 43.544 107.07 43.58 106.95 43.58H104.718V48.206C104.718 48.77 104.814 49.214 105.006 49.538C105.198 49.862 105.54 50.024 106.032 50.024H107.13C107.25 50.024 107.346 50.066 107.418 50.15C107.502 50.222 107.544 50.318 107.544 50.438V51.086C107.544 51.206 107.502 51.308 107.418 51.392C107.346 51.464 107.25 51.5 107.13 51.5H105.888ZM109.68 51.5C109.56 51.5 109.458 51.464 109.374 51.392C109.302 51.308 109.266 51.206 109.266 51.086V42.572C109.266 42.452 109.302 42.35 109.374 42.266C109.458 42.182 109.56 42.14 109.68 42.14H110.508C110.628 42.14 110.73 42.182 110.814 42.266C110.898 42.35 110.94 42.452 110.94 42.572V43.364C111.18 42.956 111.51 42.65 111.93 42.446C112.35 42.242 112.854 42.14 113.442 42.14H114.162C114.282 42.14 114.378 42.182 114.45 42.266C114.522 42.338 114.558 42.434 114.558 42.554V43.292C114.558 43.412 114.522 43.508 114.45 43.58C114.378 43.652 114.282 43.688 114.162 43.688H113.082C112.434 43.688 111.924 43.88 111.552 44.264C111.18 44.636 110.994 45.146 110.994 45.794V51.086C110.994 51.206 110.952 51.308 110.868 51.392C110.784 51.464 110.682 51.5 110.562 51.5H109.68ZM116.517 51.5C116.397 51.5 116.295 51.464 116.211 51.392C116.139 51.308 116.103 51.206 116.103 51.086V42.554C116.103 42.434 116.139 42.338 116.211 42.266C116.295 42.182 116.397 42.14 116.517 42.14H117.381C117.501 42.14 117.597 42.182 117.669 42.266C117.741 42.338 117.777 42.434 117.777 42.554V51.086C117.777 51.206 117.741 51.308 117.669 51.392C117.597 51.464 117.501 51.5 117.381 51.5H116.517ZM116.373 40.394C116.253 40.394 116.151 40.358 116.067 40.286C115.995 40.202 115.959 40.1 115.959 39.98V39.008C115.959 38.888 115.995 38.792 116.067 38.72C116.151 38.636 116.253 38.594 116.373 38.594H117.507C117.627 38.594 117.723 38.636 117.795 38.72C117.879 38.792 117.921 38.888 117.921 39.008V39.98C117.921 40.1 117.879 40.202 117.795 40.286C117.723 40.358 117.627 40.394 117.507 40.394H116.373ZM121.071 54.92C120.951 54.92 120.849 54.878 120.765 54.794C120.693 54.722 120.657 54.626 120.657 54.506V42.554C120.657 42.434 120.693 42.338 120.765 42.266C120.849 42.182 120.951 42.14 121.071 42.14H121.899C122.019 42.14 122.115 42.182 122.187 42.266C122.271 42.338 122.313 42.434 122.313 42.554V43.346C122.601 42.95 122.985 42.62 123.465 42.356C123.945 42.092 124.545 41.96 125.265 41.96C125.937 41.96 126.507 42.074 126.975 42.302C127.455 42.53 127.845 42.842 128.145 43.238C128.457 43.634 128.691 44.084 128.847 44.588C129.003 45.092 129.087 45.632 129.099 46.208C129.111 46.4 129.117 46.604 129.117 46.82C129.117 47.036 129.111 47.24 129.099 47.432C129.087 47.996 129.003 48.536 128.847 49.052C128.691 49.556 128.457 50.006 128.145 50.402C127.845 50.786 127.455 51.098 126.975 51.338C126.507 51.566 125.937 51.68 125.265 51.68C124.569 51.68 123.981 51.554 123.501 51.302C123.033 51.038 122.649 50.714 122.349 50.33V54.506C122.349 54.626 122.313 54.722 122.241 54.794C122.169 54.878 122.067 54.92 121.935 54.92H121.071ZM124.887 50.222C125.511 50.222 125.997 50.09 126.345 49.826C126.705 49.55 126.963 49.196 127.119 48.764C127.275 48.32 127.365 47.846 127.389 47.342C127.401 46.994 127.401 46.646 127.389 46.298C127.365 45.794 127.275 45.326 127.119 44.894C126.963 44.45 126.705 44.096 126.345 43.832C125.997 43.556 125.511 43.418 124.887 43.418C124.299 43.418 123.819 43.556 123.447 43.832C123.087 44.108 122.817 44.462 122.637 44.894C122.469 45.314 122.373 45.746 122.349 46.19C122.337 46.382 122.331 46.61 122.331 46.874C122.331 47.138 122.337 47.372 122.349 47.576C122.361 47.996 122.457 48.41 122.637 48.818C122.829 49.226 123.111 49.562 123.483 49.826C123.855 50.09 124.323 50.222 124.887 50.222ZM136.205 54.92C136.085 54.92 135.983 54.878 135.899 54.794C135.827 54.722 135.791 54.626 135.791 54.506V42.554C135.791 42.434 135.827 42.338 135.899 42.266C135.983 42.182 136.085 42.14 136.205 42.14H137.033C137.153 42.14 137.249 42.182 137.321 42.266C137.405 42.338 137.447 42.434 137.447 42.554V43.346C137.735 42.95 138.119 42.62 138.599 42.356C139.079 42.092 139.679 41.96 140.399 41.96C141.071 41.96 141.641 42.074 142.109 42.302C142.589 42.53 142.979 42.842 143.279 43.238C143.591 43.634 143.825 44.084 143.981 44.588C144.137 45.092 144.221 45.632 144.233 46.208C144.245 46.4 144.251 46.604 144.251 46.82C144.251 47.036 144.245 47.24 144.233 47.432C144.221 47.996 144.137 48.536 143.981 49.052C143.825 49.556 143.591 50.006 143.279 50.402C142.979 50.786 142.589 51.098 142.109 51.338C141.641 51.566 141.071 51.68 140.399 51.68C139.703 51.68 139.115 51.554 138.635 51.302C138.167 51.038 137.783 50.714 137.483 50.33V54.506C137.483 54.626 137.447 54.722 137.375 54.794C137.303 54.878 137.201 54.92 137.069 54.92H136.205ZM140.021 50.222C140.645 50.222 141.131 50.09 141.479 49.826C141.839 49.55 142.097 49.196 142.253 48.764C142.409 48.32 142.499 47.846 142.523 47.342C142.535 46.994 142.535 46.646 142.523 46.298C142.499 45.794 142.409 45.326 142.253 44.894C142.097 44.45 141.839 44.096 141.479 43.832C141.131 43.556 140.645 43.418 140.021 43.418C139.433 43.418 138.953 43.556 138.581 43.832C138.221 44.108 137.951 44.462 137.771 44.894C137.603 45.314 137.507 45.746 137.483 46.19C137.471 46.382 137.465 46.61 137.465 46.874C137.465 47.138 137.471 47.372 137.483 47.576C137.495 47.996 137.591 48.41 137.771 48.818C137.963 49.226 138.245 49.562 138.617 49.826C138.989 50.09 139.457 50.222 140.021 50.222ZM146.928 51.5C146.808 51.5 146.706 51.464 146.622 51.392C146.55 51.308 146.514 51.206 146.514 51.086V39.134C146.514 39.014 146.55 38.918 146.622 38.846C146.706 38.762 146.808 38.72 146.928 38.72H147.774C147.906 38.72 148.008 38.762 148.08 38.846C148.152 38.918 148.188 39.014 148.188 39.134V51.086C148.188 51.206 148.152 51.308 148.08 51.392C148.008 51.464 147.906 51.5 147.774 51.5H146.928ZM153.483 51.68C152.883 51.68 152.337 51.56 151.845 51.32C151.353 51.08 150.957 50.756 150.657 50.348C150.357 49.94 150.207 49.478 150.207 48.962C150.207 48.134 150.543 47.474 151.215 46.982C151.887 46.49 152.763 46.166 153.843 46.01L156.525 45.632V45.11C156.525 44.534 156.357 44.084 156.021 43.76C155.697 43.436 155.163 43.274 154.419 43.274C153.879 43.274 153.441 43.382 153.105 43.598C152.781 43.814 152.553 44.09 152.421 44.426C152.349 44.606 152.223 44.696 152.043 44.696H151.233C151.101 44.696 150.999 44.66 150.927 44.588C150.867 44.504 150.837 44.408 150.837 44.3C150.837 44.12 150.903 43.898 151.035 43.634C151.179 43.37 151.395 43.112 151.683 42.86C151.971 42.608 152.337 42.398 152.781 42.23C153.237 42.05 153.789 41.96 154.437 41.96C155.157 41.96 155.763 42.056 156.255 42.248C156.747 42.428 157.131 42.674 157.407 42.986C157.695 43.298 157.899 43.652 158.019 44.048C158.151 44.444 158.217 44.846 158.217 45.254V51.086C158.217 51.206 158.175 51.308 158.091 51.392C158.019 51.464 157.923 51.5 157.803 51.5H156.975C156.843 51.5 156.741 51.464 156.669 51.392C156.597 51.308 156.561 51.206 156.561 51.086V50.312C156.405 50.528 156.195 50.744 155.931 50.96C155.667 51.164 155.337 51.338 154.941 51.482C154.545 51.614 154.059 51.68 153.483 51.68ZM153.861 50.33C154.353 50.33 154.803 50.228 155.211 50.024C155.619 49.808 155.937 49.478 156.165 49.034C156.405 48.59 156.525 48.032 156.525 47.36V46.856L154.437 47.162C153.585 47.282 152.943 47.486 152.511 47.774C152.079 48.05 151.863 48.404 151.863 48.836C151.863 49.172 151.959 49.454 152.151 49.682C152.355 49.898 152.607 50.06 152.907 50.168C153.219 50.276 153.537 50.33 153.861 50.33ZM161.219 51.5C161.099 51.5 160.997 51.464 160.913 51.392C160.841 51.308 160.805 51.206 160.805 51.086V42.554C160.805 42.434 160.841 42.338 160.913 42.266C160.997 42.182 161.099 42.14 161.219 42.14H162.065C162.185 42.14 162.281 42.182 162.353 42.266C162.437 42.338 162.479 42.434 162.479 42.554V43.346C162.791 42.938 163.181 42.608 163.649 42.356C164.129 42.092 164.741 41.96 165.485 41.96C166.265 41.96 166.925 42.134 167.465 42.482C168.017 42.818 168.431 43.292 168.707 43.904C168.983 44.504 169.121 45.206 169.121 46.01V51.086C169.121 51.206 169.085 51.308 169.013 51.392C168.941 51.464 168.845 51.5 168.725 51.5H167.825C167.705 51.5 167.603 51.464 167.519 51.392C167.447 51.308 167.411 51.206 167.411 51.086V46.1C167.411 45.26 167.207 44.606 166.799 44.138C166.391 43.658 165.791 43.418 164.999 43.418C164.255 43.418 163.655 43.658 163.199 44.138C162.755 44.606 162.533 45.26 162.533 46.1V51.086C162.533 51.206 162.491 51.308 162.407 51.392C162.335 51.464 162.239 51.5 162.119 51.5H161.219ZM174.961 51.68C174.289 51.68 173.713 51.596 173.233 51.428C172.753 51.26 172.363 51.056 172.063 50.816C171.763 50.576 171.535 50.336 171.379 50.096C171.235 49.856 171.157 49.664 171.145 49.52C171.133 49.388 171.175 49.286 171.271 49.214C171.367 49.142 171.463 49.106 171.559 49.106H172.351C172.423 49.106 172.477 49.118 172.513 49.142C172.561 49.154 172.621 49.202 172.693 49.286C172.849 49.454 173.023 49.622 173.215 49.79C173.407 49.958 173.641 50.096 173.917 50.204C174.205 50.312 174.559 50.366 174.979 50.366C175.591 50.366 176.095 50.252 176.491 50.024C176.887 49.784 177.085 49.436 177.085 48.98C177.085 48.68 177.001 48.44 176.833 48.26C176.677 48.08 176.389 47.918 175.969 47.774C175.561 47.63 174.997 47.48 174.277 47.324C173.557 47.156 172.987 46.952 172.567 46.712C172.147 46.46 171.847 46.166 171.667 45.83C171.487 45.482 171.397 45.092 171.397 44.66C171.397 44.216 171.529 43.79 171.793 43.382C172.057 42.962 172.441 42.62 172.945 42.356C173.461 42.092 174.103 41.96 174.871 41.96C175.495 41.96 176.029 42.038 176.473 42.194C176.917 42.35 177.283 42.548 177.571 42.788C177.859 43.016 178.075 43.244 178.219 43.472C178.363 43.7 178.441 43.892 178.453 44.048C178.465 44.168 178.429 44.27 178.345 44.354C178.261 44.426 178.165 44.462 178.057 44.462H177.301C177.217 44.462 177.145 44.444 177.085 44.408C177.037 44.372 176.989 44.33 176.941 44.282C176.821 44.126 176.677 43.97 176.509 43.814C176.353 43.658 176.143 43.532 175.879 43.436C175.627 43.328 175.291 43.274 174.871 43.274C174.271 43.274 173.821 43.4 173.521 43.652C173.221 43.904 173.071 44.222 173.071 44.606C173.071 44.834 173.137 45.038 173.269 45.218C173.401 45.398 173.653 45.56 174.025 45.704C174.397 45.848 174.949 46.004 175.681 46.172C176.473 46.328 177.097 46.538 177.553 46.802C178.009 47.066 178.333 47.372 178.525 47.72C178.717 48.068 178.813 48.47 178.813 48.926C178.813 49.43 178.663 49.892 178.363 50.312C178.075 50.732 177.643 51.068 177.067 51.32C176.503 51.56 175.801 51.68 174.961 51.68Z" fill="white"/>
</svg>
