<svg width="136" height="25" viewBox="0 0 136 25" fill="none" xmlns="http://www.w3.org/2000/svg">
<path d="M12 2.5L15.09 8.76L22 9.77L17 14.64L18.18 21.52L12 18.27L5.82 21.52L7 14.64L2 9.77L8.91 8.76L12 2.5Z" fill="#FFC107"/>
<path d="M40 2.5L43.09 8.76L50 9.77L45 14.64L46.18 21.52L40 18.27L33.82 21.52L35 14.64L30 9.77L36.91 8.76L40 2.5Z" fill="#FFC107"/>
<path d="M68 2.5L71.09 8.76L78 9.77L73 14.64L74.18 21.52L68 18.27L61.82 21.52L63 14.64L58 9.77L64.91 8.76L68 2.5Z" fill="#FFC107"/>
<path d="M96 2.5L99.09 8.76L106 9.77L101 14.64L102.18 21.52L96 18.27L89.82 21.52L91 14.64L86 9.77L92.91 8.76L96 2.5Z" fill="#FFC107"/>
<path d="M124 2.5L127.09 8.76L134 9.77L129 14.64L130.18 21.52L124 18.27L117.82 21.52L119 14.64L114 9.77L120.91 8.76L124 2.5Z" fill="#FFC107"/>
</svg>
