<svg width="26" height="22" viewBox="0 0 26 22" fill="none" xmlns="http://www.w3.org/2000/svg">
<path d="M25.768 3.17201C24.808 3.58801 23.816 3.87601 22.76 4.00401C23.848 3.36401 24.68 2.34001 25.064 1.09201C24.04 1.70001 22.92 2.11601 21.736 2.37201C20.776 1.34801 19.4 0.708008 17.896 0.708008C14.984 0.708008 12.648 3.07601 12.648 5.95601C12.648 6.37201 12.68 6.75601 12.776 7.14001C8.42397 6.94801 4.58397 4.83601 1.99197 1.66801C0.135969 4.99601 2.21597 7.74801 3.59197 8.67601C2.75997 8.67601 1.92797 8.42001 1.22397 8.03601C1.22397 10.628 3.04797 12.772 5.41597 13.252C4.90397 13.412 3.75197 13.508 3.04797 13.348C3.71997 15.428 5.67197 16.964 7.94397 16.996C6.15197 18.404 3.52797 19.524 0.167969 19.172C2.50397 20.676 5.25597 21.54 8.23197 21.54C17.896 21.54 23.144 13.54 23.144 6.62801C23.144 6.40401 23.144 6.18001 23.112 5.95601C24.2 5.15601 25.096 4.22801 25.768 3.17201Z" fill="white"/>
</svg>
