<svg width="32" height="33" viewBox="0 0 32 33" fill="none" xmlns="http://www.w3.org/2000/svg">
<path d="M32.0002 16.5889C32.2402 7.42885 24.8802 -0.0111466 15.7602 0.108853C7.00018 0.228853 -0.0798169 7.46885 0.000183068 16.2289C0.0401831 22.5089 3.72018 27.9089 9.00018 30.5089C9.32018 30.6689 9.68018 30.4289 9.64018 30.0689C9.60018 29.0289 9.64018 27.9489 9.84018 27.0689C10.0402 26.1889 10.8402 22.8289 11.3602 20.6289C11.6002 19.5489 11.6402 18.4289 11.4402 17.3489C11.3602 16.9889 11.3202 16.5889 11.3202 16.1089C11.3202 13.7489 12.6802 11.9889 14.4002 11.9889C15.8402 11.9889 16.5602 13.0689 16.5602 14.3889C16.5602 15.8289 15.6402 18.0289 15.1602 20.0689C14.7602 21.7489 16.0002 23.1489 17.6802 23.1489C20.7202 23.1489 23.0402 19.9489 23.0402 15.3489C23.0402 11.2689 20.1202 8.42885 15.9202 8.42885C11.0802 8.42885 8.24018 12.0689 8.24018 15.8289C8.24018 17.3089 8.80018 18.8689 9.52018 19.7089C9.64018 19.8689 9.68018 20.0289 9.64018 20.1889C9.52018 20.7089 9.24018 21.8689 9.16018 22.1089C9.08018 22.4289 8.92018 22.4689 8.60018 22.3489C6.48018 21.3089 5.12018 18.1889 5.12018 15.7089C5.12018 10.3489 9.00018 5.42885 16.3602 5.42885C22.2402 5.42885 26.8402 9.62885 26.8402 15.2689C26.8402 21.1489 23.1602 25.8289 18.0002 25.8289C16.6402 25.8289 15.3602 25.2689 14.6002 24.5089C14.3602 24.2689 13.9602 24.3889 13.8802 24.7089C13.6002 25.7089 13.2002 27.3889 13.0402 27.9089C12.8002 28.8689 12.2802 29.9888 11.7202 30.9888C11.5602 31.2288 11.7202 31.5889 12.0002 31.6289C13.3202 31.9489 14.6802 32.1489 16.0802 32.1089C24.5602 32.0289 31.7602 24.9889 32.0002 16.5889Z" fill="white"/>
</svg>
